<svg xmlns="http://www.w3.org/2000/svg" width="112" height="112" fill="none" viewBox="0 0 112 112">
    <g clip-path="url(#prefix__clip0)">
        <path fill="#26BED6" d="M111.187 18.76c-.665-.798-1.652-1.26-2.688-1.26H23.521c-1.085 0-2.114.504-2.78 1.365-.657.868-.881 1.988-.601 3.038l11.2 41.86c.413 1.54 1.799 2.596 3.38 2.596.056 0 .12 0 .175-.007l66.779-3.36c1.617-.084 2.975-1.267 3.269-2.863l7-38.5c.189-1.028-.091-2.078-.756-2.869z"/>
        <path fill="#FAFAFA" d="M87.5 52.5c-1.932 0-3.5-1.568-3.5-3.5V35c0-1.932 1.568-3.5 3.5-3.5S91 33.068 91 35v14c0 1.932-1.568 3.5-3.5 3.5zM66.5 52.5c-1.932 0-3.5-1.568-3.5-3.5V35c0-1.932 1.568-3.5 3.5-3.5S70 33.068 70 35v14c0 1.932-1.568 3.5-3.5 3.5zM45.5 52.5c-1.932 0-3.5-1.568-3.5-3.5V35c0-1.932 1.568-3.5 3.5-3.5S49 33.068 49 35v14c0 1.932-1.568 3.5-3.5 3.5z"/>
        <path fill="#003C71" d="M45.5 108.498c5.799 0 10.5-4.701 10.5-10.5s-4.701-10.5-10.5-10.5c-5.8 0-10.5 4.701-10.5 10.5s4.7 10.5 10.5 10.5zM87.5 108.498c5.799 0 10.5-4.701 10.5-10.5s-4.701-10.5-10.5-10.5c-5.8 0-10.5 4.701-10.5 10.5s4.7 10.5 10.5 10.5zM94.499 80.499h-56c-1.589 0-2.975-1.064-3.38-2.597L17.121 10.5H3.5C1.568 10.5 0 8.932 0 7s1.568-3.5 3.5-3.5h16.31c1.589 0 2.975 1.064 3.38 2.597l17.997 67.402H94.5c1.931 0 3.5 1.568 3.5 3.5s-1.569 3.5-3.5 3.5z"/>
    </g>
    <defs>
        <clipPath id="prefix__clip0">
            <path fill="#fff" d="M0 0H112V112H0z"/>
        </clipPath>
    </defs>
</svg>
