<svg xmlns="http://www.w3.org/2000/svg" width="16" height="16" fill="none" viewBox="0 0 16 16">
    <path fill="#222" d="M5.155 10.344h8.501c.21 0 .393-.139.45-.34l1.876-6.563c.04-.141.012-.293-.076-.41-.09-.118-.228-.187-.375-.187H4.074l-.335-1.508C3.69 1.12 3.5.969 3.28.969H.47c-.26 0-.469.21-.469.469 0 .258.21.468.469.468h2.436l1.693 7.616c-.499.217-.848.713-.848 1.29 0 .776.63 1.407 1.406 1.407h8.5c.26 0 .469-.21.469-.469s-.21-.469-.469-.469h-8.5c-.258 0-.468-.21-.468-.469 0-.258.21-.467.467-.468zM14.91 3.78l-1.607 5.625h-7.77l-1.25-5.625H14.91z"/>
    <path fill="#222" d="M4.688 13.625c0 .775.63 1.406 1.406 1.406.775 0 1.406-.63 1.406-1.406 0-.775-.63-1.406-1.406-1.406-.776 0-1.407.63-1.407 1.406zm1.406-.469c.258 0 .468.21.468.469 0 .258-.21.469-.468.469-.259 0-.469-.21-.469-.469 0-.258.21-.469.469-.469zM11.313 13.625c0 .775.63 1.406 1.406 1.406.775 0 1.406-.63 1.406-1.406 0-.775-.63-1.406-1.406-1.406-.776 0-1.406.63-1.406 1.406zm1.406-.469c.258 0 .469.21.469.469 0 .258-.21.469-.47.469-.258 0-.468-.21-.468-.469 0-.258.21-.469.469-.469z"/>
</svg>
