<svg xmlns="http://www.w3.org/2000/svg" width="24" height="24" fill="none" style=""><rect id="backgroundrect" width="100%" height="100%" x="0" y="0" fill="none" stroke="none"/>
    
    
<g class="currentLayer" style=""><title>Layer 1</title><path fill="#ffffff" d="M7.733 15.516h12.751c.314 0 .59-.209.676-.51l2.813-9.844c.06-.212.018-.44-.115-.617-.133-.176-.34-.28-.561-.28H6.11l-.503-2.261c-.071-.322-.357-.55-.686-.55H.703c-.388 0-.703.314-.703.702 0 .389.315.703.703.703h3.655l2.538 11.424c-.747.325-1.271 1.07-1.271 1.936 0 1.163.946 2.11 2.11 2.11h12.75c.388 0 .703-.316.703-.704 0-.388-.315-.703-.704-.703H7.734c-.387 0-.703-.316-.703-.703 0-.387.315-.702.702-.703zm14.632-9.844l-2.411 8.437H8.298L6.423 5.672h15.942z" id="svg_1" class="" stroke="#ffffff" stroke-opacity="1" fill-opacity="1"/><path fill="#ffffff" d="M7.031 20.438c0 1.163.947 2.109 2.11 2.109 1.163 0 2.109-.946 2.109-2.11 0-1.163-.946-2.109-2.11-2.109-1.162 0-2.109.946-2.109 2.11zm2.11-.704c.387 0 .703.316.703.703 0 .388-.316.704-.703.704-.388 0-.704-.316-.704-.703 0-.388.316-.704.704-.704zM16.969 20.438c0 1.163.946 2.109 2.11 2.109 1.162 0 2.108-.946 2.108-2.11 0-1.163-.946-2.109-2.109-2.109s-2.11.946-2.11 2.11zm2.11-.704c.387 0 .702.316.702.703 0 .388-.315.704-.703.704-.387 0-.703-.316-.703-.703 0-.388.316-.704.703-.704z" id="svg_2" class="" stroke="#ffffff" stroke-opacity="1" fill-opacity="1"/></g></svg>