<svg xmlns="http://www.w3.org/2000/svg" width="40" height="40" fill="none" viewBox="0 0 40 40">
    <path fill="#26BED6" d="M5.763 15.593h28.474V27.12c0 2.247-1.82 4.067-4.067 4.067H9.83c-2.246 0-4.067-1.82-4.067-4.067V15.593z"/>
    <path fill="#003C71" d="M3.051 15.593h2.712v2.712H3.051c-.749 0-1.356-.607-1.356-1.356 0-.748.607-1.356 1.356-1.356zM34.237 15.593h2.712c.75 0 1.356.608 1.356 1.356 0 .75-.607 1.356-1.356 1.356h-2.712v-2.712z"/>
    <path fill="#26BED6" d="M9.092 7.697l20-3.696c2.21-.409 4.331 1.052 4.74 3.26l-28 5.175c-.408-2.21 1.051-4.33 3.26-4.74z"/>
    <path fill="#003C71" d="M15.44 1.009l5.334-.986c.736-.136 1.444.35 1.58 1.087.136.736-.35 1.444-1.087 1.58l-5.334.985c-.736.136-1.443-.35-1.58-1.087-.136-.736.351-1.443 1.088-1.58z"/>
    <path fill="#003C71" d="M16.6 3.552l4-.74.493 2.668-4 .739-.493-2.667z"/>
    <path fill="#E52822" d="M16.61 39.322c-1.123 0-2.033-.91-2.033-2.034 0-.44.142-.868.406-1.22l1.628-2.17 1.627 2.17c.264.352.407.78.407 1.22 0 1.123-.911 2.034-2.034 2.034zM9.831 39.322c-1.124 0-2.034-.91-2.034-2.034 0-.44.143-.868.407-1.22l1.627-2.17 1.627 2.17c.264.352.407.78.407 1.22 0 1.123-.91 2.034-2.034 2.034zM23.39 39.322c-1.123 0-2.034-.91-2.034-2.034 0-.44.143-.868.407-1.22l1.627-2.17 1.627 2.17c.264.352.407.78.407 1.22 0 1.123-.91 2.034-2.034 2.034zM30.17 39.322c-1.124 0-2.034-.91-2.034-2.034 0-.44.143-.868.406-1.22l1.628-2.17 1.627 2.17c.264.352.407.78.407 1.22 0 1.123-.911 2.034-2.034 2.034z"/>
    <path fill="#003C71" d="M5.763 38.644h28.474V40H5.763v-1.356z"/>
    <path fill="#F79321" d="M22.712 15.593v4.068c0 .749.607 1.356 1.356 1.356.749 0 1.356-.607 1.356-1.356 0-.749.607-1.356 1.356-1.356.749 0 1.356.607 1.356 1.356v2.712c0 .749.607 1.356 1.356 1.356.749 0 1.356-.607 1.356-1.356v-6.78h-8.136z"/>
</svg>
