<svg xmlns="http://www.w3.org/2000/svg" width="40" height="40" fill="none" viewBox="0 0 40 40">
    <g clip-path="url(#prefix__clip0)">
        <path fill="#48C1E1" d="M8.795 5.744H4.75v2.699h4.045v-2.7z"/>
        <path fill="#046699" d="M9.63 5.447c0 .221-.182.402-.403.402H4.318c-.221 0-.402-.181-.402-.402v-2.9c0-.222.18-.403.402-.403h4.909c.221 0 .402.18.402.402v2.9z"/>
        <path fill="#000" d="M5.594 5.447v-2.9c0-.222.181-.403.403-.403H4.318c-.221 0-.402.18-.402.402v2.9c0 .222.18.403.402.403h1.679c-.222 0-.403-.181-.403-.402z" opacity=".1"/>
        <path fill="#A2DFF9" d="M3.496 27.624c.021-.009.037-.026.044-.047.008-.021.006-.045-.005-.064-.034-.06-.05-.118-.05-.173 0-.43.954-.892 2.377-.892.458 0 .904.051 1.29.148l.018.002c.02 0 .04-.008.056-.023.02-.02.027-.047.02-.074-.248-.99-.39-2.009-.423-3.05l-.002-.036c-.005-.148-.007-.297-.007-.447 0-.18.146-.326.326-.326h.706c.022 0 .043-.01.058-.026.015-.017.022-.04.02-.061-.012-.104-.017-.19-.017-.273 0-1.1.704-2.062 1.751-2.392.022-.007.04-.023.048-.043.01-.021.009-.045 0-.065-.096-.199-.163-.406-.2-.617-.182-1.053.37-2.102 1.34-2.55.037-.017.055-.059.041-.097-.045-.128-.08-.259-.102-.39-.149-.854.186-1.683.805-2.208v-3.355c0-1.235-1.008-2.246-2.24-2.246H4.195c-1.232 0-2.24 1.01-2.24 2.246v17.99c.448-.378.966-.695 1.54-.931z"/>
        <path fill="#046699" d="M9.658 19.89c.022-.007.04-.023.048-.043.01-.021.009-.045 0-.065-.096-.199-.163-.406-.2-.617-.182-1.053.37-2.102 1.34-2.55.037-.017.055-.06.041-.097-.045-.128-.08-.259-.102-.39-.149-.854.186-1.683.805-2.208v-1.51H1.956v8.312h6.493c.303-.382.718-.677 1.21-.832z"/>
        <path fill="#000" d="M4.375 26.65V10.564c0-1.235 1.008-2.246 2.24-2.246H4.197c-1.232 0-2.24 1.01-2.24 2.246v17.99c.448-.378.966-.695 1.54-.931.021-.009.037-.026.044-.047.008-.021.006-.045-.005-.064-.034-.06-.05-.118-.05-.173 0-.253.33-.516.89-.69z" opacity=".1"/>
        <path fill="#EF5050" d="M18.948 14.707c.023.13.035.265.035.402 0 .04.03.074.071.077 1 .088 1.836.8 2.081 1.773.007.027.027.048.054.056.007.002.014.003.022.003.02 0 .038-.007.053-.02.408-.38.915-.61 1.467-.661.039-.004.07-.036.07-.075.036-1.096.481-2.126 1.255-2.901.016-.017.033-.032.05-.048-.172-1.09-.675-2.139-1.511-2.977-.165-.165-.432-.165-.597 0l-3.429 3.437c.187.273.32.589.38.934z"/>
        <path fill="#C0272D" d="M21.135 16.96c.007.026.027.047.054.055.007.002.014.003.022.003.02 0 .038-.007.053-.02.2-.186.422-.335.663-.446-.027-.09-.076-.174-.147-.245l-.569-.57c-.228-.229-.599-.23-.828 0-.002 0-.003.002-.005.004.365.311.635.732.757 1.218zM22.354 15.225h-.805c-.323 0-.586-.262-.586-.586 0-.324.262-.586.586-.586h.805c.323 0 .585.262.585.586 0 .324-.262.586-.585.586zM21.436 13.606c-.15 0-.3-.057-.414-.171-.23-.229-.23-.6-.001-.829l.569-.57c.229-.229.6-.23.829 0 .229.228.229.599 0 .828l-.569.57c-.114.115-.264.172-.414.172z"/>
        <path fill="#89C947" d="M28.782 12.411c-.007-.018-.018-.034-.031-.047-.014-.014-.03-.024-.048-.031-1.622-.646-3.468-.265-4.703.973-.82.821-1.262 1.914-1.279 3.032.081-.008.164-.013.247-.013 1.215 0 2.23.873 2.455 2.026.887-.145 1.726-.562 2.388-1.226 1.235-1.237 1.615-3.088.97-4.714z"/>
        <path fill="#D5E962" d="M26.676 14.443c-.229-.229-.6-.228-.828.001l-2.027 2.031c.382.14.722.37.992.666l1.864-1.87c.229-.228.229-.6 0-.828z"/>
        <path fill="#FFC502" d="M29.623 19.121c.02.119.03.24.031.362 0 .04.031.074.071.078.317.028.62.126.899.292.012.007.026.01.04.01.022 0 .043-.008.059-.026.066-.076.123-.138.18-.194.471-.473 1.042-.81 1.663-.994.059-.216.09-.443.09-.678 0-1.428-1.155-2.586-2.58-2.586-1.216 0-2.234.843-2.508 1.977 1.02.017 1.88.751 2.055 1.76zM11.938 22.585c-.261-.463-.427-.972-.49-1.495-.762-.125-1.408-.612-1.74-1.297-1.084.306-1.88 1.304-1.88 2.49 0 .102.008.203.02.302h4.09z"/>
        <path fill="#89C947" d="M31.632 21.314c.076.435.016.874-.173 1.271h3.316c.783-1.1.973-2.535.463-3.819-.006-.016-.016-.031-.028-.043-.012-.012-.027-.022-.043-.029-1.49-.593-3.186-.243-4.32.893-.082.084-.16.17-.234.259.526.309.91.837 1.02 1.468z"/>
        <path fill="#D5E962" d="M31.46 22.585h.724l1.156-1.158c.228-.23.228-.6-.002-.829-.229-.228-.6-.228-.828.001l-.858.86c.04.387-.025.773-.193 1.126z"/>
        <path fill="#368C0E" d="M21.225 17.005c-.235-1.053-1.126-1.805-2.164-1.896 0-.137-.011-.276-.035-.416-.23-1.327-1.495-2.216-2.825-1.985-.69.12-1.261.52-1.62 1.06-.52-.388-1.192-.57-1.882-.45-1.33.231-2.222 1.495-1.991 2.823.024.14.06.274.106.403-.981.453-1.577 1.52-1.384 2.634.182 1.053 1.015 1.829 2.015 1.99-.097-.67-.02-1.364.24-2.018.003-.007.006-.012.011-.017.005-.005.01-.009.017-.011.466-.186.955-.28 1.454-.28 1.05 0 2.038.41 2.781 1.155.054.055.105.11.156.167-.042-.27-.063-.544-.063-.822 0-.19.154-.344.343-.344h4.09c-.003-.054-.005-.11-.005-.164 0-.715.289-1.361.756-1.83z"/>
        <path fill="#89C947" d="M12.668 17.233h-.01c-.323-.005-.581-.272-.576-.596.017-1.014.85-1.828 1.861-1.828h.03c.51.008 1 .228 1.343.605.218.239.201.61-.037.828-.24.218-.61.201-.828-.038-.129-.14-.305-.22-.496-.223-.381-.006-.695.297-.701.676-.005.32-.267.576-.586.576zM15.903 18.242c-.068 0-.136-.012-.204-.037-.303-.113-.458-.45-.345-.753.327-.882 1.31-1.334 2.192-1.008.439.162.796.502.978.932.127.298-.012.642-.31.768-.297.127-.641-.012-.768-.31-.058-.136-.167-.24-.306-.29-.277-.103-.585.039-.688.315-.087.236-.311.383-.549.383z"/>
        <path fill="#368C0E" d="M25.465 18.992h-.021v.016h.784c.233 0 .422.19.422.422 0 1.178-.38 2.267-1.02 3.155h5.913c.177-.389.245-.832.166-1.285-.174-1.005-1.005-1.732-1.977-1.817 0-.124-.01-.25-.032-.375-.208-1.2-1.35-2.002-2.551-1.793-.623.108-1.14.469-1.463.957-.106-.078-.218-.146-.335-.205.077.242.12.5.12.767 0 .051-.002.103-.006.158z"/>
        <path fill="#F7931E" d="M25.542 18.998c.004-.054.007-.11.007-.164 0-1.429-1.156-2.587-2.581-2.587s-2.58 1.158-2.58 2.587c0 .055.002.11.005.164h5.15z"/>
        <path fill="#89C947" d="M16.003 19.942c-1.133-1.136-2.829-1.486-4.319-.893-.016.007-.03.017-.043.029-.012.012-.022.027-.029.043-.456 1.15-.351 2.421.238 3.464h5.318c-.538-.717-.904-1.573-1.032-2.503-.043-.047-.087-.094-.133-.14z"/>
        <path fill="#D5E962" d="M14.313 22.585h1.655l-1.627-1.63c-.229-.23-.6-.23-.829-.002-.229.229-.23.6 0 .829l.8.803z"/>
        <path fill="#EF5050" d="M25.67 22.585c.678-.904 1.083-2.026 1.083-3.243 0-.233-.189-.422-.422-.422h-9.947c-.233 0-.421.189-.421.422 0 1.217.404 2.339 1.083 3.243h8.623z"/>
        <path fill="#C0272D" d="M21.965 22.585v-.405c0-.324-.262-.586-.586-.586-.324 0-.586.262-.586.586v.405h1.172zM23.089 22.585H24c.189-.23.176-.57-.039-.785l-.568-.57c-.229-.229-.6-.23-.829 0-.23.228-.23.599-.001.828l.526.527zM19.576 22.585l.526-.527c.229-.229.229-.6 0-.828-.23-.23-.6-.229-.83 0l-.568.57c-.215.215-.227.555-.039.785h.912zM18.676 21.005h-.805c-.324 0-.586-.262-.586-.586 0-.323.262-.586.586-.586h.805c.323 0 .586.263.586.586 0 .324-.263.586-.586.586zM24.844 21.005h-.804c-.324 0-.586-.262-.586-.586 0-.323.262-.586.586-.586h.804c.324 0 .586.263.586.586 0 .324-.262.586-.586.586z"/>
        <path fill="#E6E9ED" d="M7.264 26.625l.021.003c.017 0 .034-.005.047-.016.02-.014.031-.037.031-.062v-.992c0-.28.228-.507.508-.507s.508.228.508.508v.991c0 .025.011.048.03.062.015.01.031.016.048.016.007 0 .014 0 .021-.003.411-.116.896-.177 1.402-.177 1.423 0 2.378.461 2.378.892 0 .055-.017.114-.05.173-.011.02-.014.043-.006.064.007.021.023.038.044.047 1.82.75 3.111 2.343 3.368 4.155.003.023.017.044.037.056.012.008.026.011.04.011.01 0 .019-.002.028-.005l12.334-4.686c.238-.09.489-.136.744-.136.358 0 .712.092 1.023.267.543.303.918.826 1.031 1.435l.108.58c.004.026.02.047.044.057.01.005.021.007.032.007.014 0 .028-.003.04-.01l4.147-2.448c.356-1.27.537-2.587.537-3.939 0-.224-.18-.405-.404-.405H7.14c-.223 0-.404.181-.404.405 0 1.246.154 2.462.457 3.639l.071.018z"/>
        <path fill="#000" d="M7.264 26.625l.021.003c.017 0 .034-.005.047-.016.02-.014.031-.037.031-.062v-.992c0-.28.228-.507.508-.507s.508.228.508.508v.991c0 .025.011.048.03.062.015.01.031.016.048.016.007 0 .014 0 .021-.003.352-.099.758-.158 1.185-.172-.277-1.13-.417-2.293-.417-3.485 0-.224.181-.405.404-.405H7.14c-.223 0-.404.181-.404.405 0 1.246.154 2.462.457 3.639l.071.018z" opacity=".1"/>
        <path fill="#89C947" d="M7.871 26.904c.16-.09.36-.169.586-.232v-1.114c0-.323-.262-.585-.586-.585-.323 0-.586.262-.586.585v1.114c.227.063.426.142.586.232z"/>
        <path fill="#EF5050" d="M13.857 37.777l-2.116.001h-.001c-1.008 0-1.871-.716-2.054-1.702l-.02-.112c-.184-.987.367-1.963 1.309-2.32l4.727-1.797c-.243-1.947-1.615-3.578-3.5-4.326-.182.307-.812.575-1.632.671-.03.004-.057.026-.066.056-.008.03.002.063.027.083.425.34.691.698.714.958.008.095-.015.171-.071.234-.1.113-.296.172-.567.172-.527 0-1.24-.22-1.908-.59-.294-.163-.555-.34-.777-.529-.015-.012-.033-.018-.05-.018-.019 0-.037.006-.051.018-.223.189-.484.367-.778.53-.667.369-1.38.59-1.908.59-.27 0-.467-.06-.566-.173-.056-.063-.08-.14-.072-.234.023-.26.29-.619.714-.958.025-.02.035-.053.027-.083-.009-.03-.035-.052-.066-.056-.82-.096-1.45-.364-1.632-.671C1.458 28.347 0 30.25 0 32.469c0 2.975 2.624 5.387 5.86 5.387h8.124c.088 0 .02-.03-.127-.079z"/>
        <path fill="#000" d="M2.535 32.469c0-1.768.926-3.336 2.355-4.319-.68-.118-1.19-.358-1.35-.63C1.458 28.348 0 30.252 0 32.47c0 2.975 2.624 5.387 5.86 5.387h2.535c-3.236 0-5.86-2.412-5.86-5.387z" opacity=".1"/>
        <path fill="#368C0E" d="M12.336 27.34c0-.536-1.1-.97-2.456-.97-.83 0-1.565.163-2.009.413-.444-.25-1.178-.413-2.01-.413-1.355 0-2.455.434-2.455.97 0 .44.74.81 1.756.93-.62.497-.905 1.02-.652 1.305.335.379 1.486.199 2.57-.401.305-.17.572-.353.79-.538.22.185.487.369.791.538 1.084.6 2.236.78 2.57.401.254-.286-.03-.808-.652-1.305 1.016-.12 1.757-.49 1.757-.93z"/>
        <path fill="#89C947" d="M39.991 30.81l-.157-.85c-.055-.292-.337-.486-.631-.432l-6.073 1.116 3.877-2.592c.184-.123.27-.34.232-.546-.011-.057-.031-.113-.061-.167l-.44-.777c-.07-.127-.19-.22-.331-.257-.141-.037-.291-.017-.416.057l-5.044 2.978.954 5.152 5.785 1.04c.144.025.293-.008.412-.093.119-.085.199-.215.22-.36l.13-.877c.01-.06.009-.12-.002-.177-.038-.206-.196-.378-.411-.428l-4.551-1.044 6.072-1.115c.295-.054.49-.335.435-.629z"/>
        <path fill="#F7931E" d="M9.61 36.09c.189 1.024 1.085 1.767 2.13 1.766l18.28-.007c.643 0 1.253-.285 1.664-.777.412-.493.582-1.142.465-1.772l-1.22-6.593c-.117-.63-.51-1.176-1.07-1.49-.561-.314-1.233-.363-1.834-.135L10.947 33.57c-.977.371-1.548 1.384-1.359 2.408l.021.112z"/>
        <path fill="#000" d="M9.61 36.09c.028.157.076.307.136.449.252-.448.657-.81 1.168-1.004l17.835-6.775c.628-.239 1.33-.187 1.915.14.123.07.238.15.344.239l-.08-.432c-.117-.63-.508-1.176-1.07-1.49-.56-.313-1.232-.363-1.833-.135L10.947 33.57c-.977.371-1.548 1.384-1.359 2.408l.021.112z" opacity=".1"/>
        <path fill="#FFC502" d="M28.972 35.108c-.061-.317-.369-.526-.686-.465-.318.06-.526.368-.465.686l.482 2.52h1.193l-.524-2.74zM25.796 35.803c-.06-.318-.367-.527-.685-.467-.318.06-.527.366-.467.684l.345 1.831h1.193l-.386-2.048zM22.69 31.39c.067.266.306.443.568.443.048 0 .096-.006.144-.018.314-.079.504-.397.425-.711l-.558-2.215-1.103.42.524 2.081zM19.642 35.293c-.058-.319-.362-.53-.681-.473-.318.057-.53.362-.473.68l.425 2.353h1.19l-.461-2.56zM13.73 34.197c.059.277.302.466.573.466.04 0 .08-.004.121-.012.317-.067.52-.378.454-.694l-.366-1.741-1.109.421.328 1.56z"/>
    </g>
    <defs>
        <clipPath id="prefix__clip0">
            <path fill="#fff" d="M0 0H40V40H0z"/>
        </clipPath>
    </defs>
</svg>
