<svg xmlns="http://www.w3.org/2000/svg" width="24" height="24" fill="none" viewBox="0 0 24 24">
    <path fill="#F79321" d="M3.64 13.031v1.612c0 .39.317.707.707.707h15.305c.39 0 .707-.316.707-.707v-1.612H3.64zM24 4.046c0-1.26-1.024-2.284-2.284-2.284-1.259 0-2.283 1.025-2.283 2.284 0 .605.237 1.156.623 1.565-.687.768-1.683 1.253-2.792 1.253-1.794 0-3.297-1.269-3.66-2.956.419-.414.68-.99.68-1.624C14.284 1.024 13.259 0 12 0c-1.26 0-2.284 1.024-2.284 2.284 0 .635.261 1.21.68 1.624-.363 1.687-1.866 2.956-3.66 2.956-1.109 0-2.105-.485-2.792-1.253.386-.409.623-.96.623-1.565 0-1.26-1.024-2.284-2.283-2.284C1.024 1.762 0 2.787 0 4.046c0 1.091.77 2.006 1.794 2.23.203 1.673.595 3.711 1.351 5.34h17.71c.756-1.629 1.148-3.667 1.35-5.34C23.23 6.052 24 5.137 24 4.046z"/>
</svg>
