<svg xmlns="http://www.w3.org/2000/svg" width="192" height="192" fill="none" viewBox="0 0 192 192">
    <g clip-path="url(#prefix__clip0)" opacity=".5">
        <path fill="#003C71" d="M64.807 77.575L6.321 61.597c-3.51-.948-5.587-4.562-4.638-8.073.948-3.51 4.562-5.587 8.071-4.638L64.44 63.664l.368 13.911z"/>
        <path fill="#003C71" d="M59.842 62.418l-.433 1.416c-1.133 3.8-1.88 7.704-2.231 11.655l7.628 2.084-.368-13.914-4.596-1.241z"/>
        <path fill="#26BED6" d="M177.56 94.243c-2.519-6.466-25.171-17.034-53.995-24.825-28.826-7.79-53.706-10.065-59.14-5.749l-1.078 1.413-1.288 4.767c-4.745 17.553 5.638 35.629 23.192 40.375l50.853 13.742c17.559 4.753 35.644-5.632 40.388-23.192l1.351-5.29-.283-1.241z"/>
        <path fill="#003C71" d="M123.557 69.469c-31.585-8.543-58.535-10.49-60.195-4.347-1.662 6.14 22.596 18.044 54.181 26.586 31.583 8.543 58.535 10.49 60.195 4.349 1.661-6.143-22.596-18.045-54.181-26.588z"/>
        <path fill="#003C71" d="M120.135 82.131c-25.91-7.001-47.49-10.544-48.2-7.911-.713 2.633 19.713 10.445 45.623 17.447 25.908 7.001 47.489 10.545 48.201 7.911.71-2.633-19.716-10.444-45.624-17.447zM107.789 105.885c-.315-.002-.627-.049-.929-.135-2.167-.64-4.291-1.29-6.371-1.95-1.733-.55-2.691-2.402-2.14-4.135.552-1.733 2.402-2.691 4.135-2.14 2.03.645 4.107 1.281 6.233 1.907 1.574.458 2.57 2.006 2.337 3.628-.233 1.624-1.625 2.828-3.265 2.825zM126.917 110.832c-.241 0-.484-.027-.72-.079-2.129-.474-4.291-.984-6.487-1.529-1.736-.461-2.781-2.229-2.349-3.972.433-1.744 2.182-2.82 3.932-2.418 2.145.531 4.262 1.027 6.336 1.492 1.637.365 2.738 1.903 2.556 3.57-.183 1.669-1.59 2.933-3.268 2.936z"/>
        <path fill="#F7BA61" d="M124.744 13.162h13.17v16.462h-13.17V13.162z"/>
        <path fill="#EA9D2D" d="M124.744 13.162h13.17v8.231h-13.17v-8.23z"/>
        <path fill="#985713" d="M126.385 0h9.877c4.545 0 8.231 3.685 8.231 8.231 0 4.546-3.686 8.23-8.231 8.23h-9.877c-4.546 0-8.231-3.684-8.231-8.23S121.839 0 126.385 0z"/>
        <path fill="#AAC16B" d="M151.031 36.63l12.761-10.4 10.4 12.76-12.76 10.401-10.401-12.76z"/>
        <path fill="#A4BB67" d="M151.021 36.63l11.138-9.077 9.321 11.435-11.138 9.078-9.321-11.437z"/>
        <path fill="#F55648" d="M111.573 26.34c0 5.455-4.423 9.877-9.877 9.877-5.455 0-9.878-4.422-9.878-9.877 0-5.455 4.423-9.877 9.878-9.877 5.454 0 9.877 4.422 9.877 9.877z"/>
        <path fill="#FF5A4B" d="M101.17 16.51c-2.898.152-5.58 1.578-7.325 3.898-1.782 3.05-1.323 6.911 1.123 9.46 2.447 2.547 6.286 3.162 9.406 1.504 3.119-1.656 4.761-5.183 4.019-8.636-.741-3.453-3.684-5.996-7.21-6.226h-.013z"/>
        <path fill="#FBEDBF" d="M98.4 46.098h6.585v6.584H98.4v-6.584zM128.033 39.516h6.585V46.1h-6.585v-6.584zM128.033 52.678h6.585v9.877h-6.585v-9.877zM164.25 55.978h6.585v6.585h-6.585v-6.585zM164.25 69.148h6.585v6.585h-6.585v-6.585z"/>
        <path fill="#F59233" d="M76.54 190.958l-3.15-9.45c-2.188-6.565-1.521-13.749 1.84-19.799l11.188-20.137v18.108c0 5.342 1.733 10.541 4.938 14.816 3.206 4.275 4.939 9.474 4.939 14.816v1.646H76.541z"/>
        <path fill="#FBEDBF" d="M55.978 182.551l6.244-2.082 3.15 9.448L59.128 192l-3.15-9.449zM61.922 153.146l7.32-13.167 5.756 3.199-7.32 13.168-5.756-3.2zM55.972 182.548c-2.471-7.443-1.714-15.581 2.091-22.441l5.754 3.201c-2.908 5.244-3.489 11.469-1.596 17.16l-6.25 2.08z"/>
        <path fill="#F59233" d="M140.825 161.713l-11.187-20.137v18.108c0 5.343-1.733 10.542-4.939 14.816-.44.59-.783 1.235-1.169 1.857 1.473-6.98.38-14.256-3.081-20.495l-13.424-24.163v21.73c0 6.411-2.079 12.649-5.926 17.779-3.847 5.13-5.925 11.367-5.925 17.778v1.976h44.341l3.151-9.449c2.188-6.566 1.521-13.75-1.841-19.8z"/>
        <path fill="#FBEDBF" d="M140.551 143.176l5.755-3.197 4.418 7.951-5.756 3.199-4.417-7.953zM161.021 174.607l-6.585-.212c.122-3.868-.806-7.697-2.685-11.081l-3.476-6.255 5.756-3.198 3.475 6.256c2.46 4.424 3.675 9.431 3.515 14.49zM150.18 189.911l2.196-6.583 6.244 2.084-2.198 6.583-6.242-2.084zM72.469 133.514l3.292-6.584 5.89 2.945-3.292 6.585-5.89-2.946zM186.386 48.418l-4.655-4.656c2.715-2.722 3.136-6.98 1.009-10.183l-1.418-2.134 5.479-3.648 1.418 2.127c3.863 5.818 3.096 13.549-1.833 18.494z"/>
        <path fill="#003C71" d="M89.013 99.64c1.591 0 2.954-1.138 3.239-2.704.285-1.566-.592-3.11-2.08-3.67C77.634 88.54 68.24 83.69 64.49 80.036l-3.157-3.292c-.11-.09-.227-.172-.35-.244-.197 3.363.128 6.736.962 10 8.011 5.462 16.724 9.812 25.905 12.93.372.138.766.208 1.163.21z"/>
    </g>
    <defs>
        <clipPath id="prefix__clip0">
            <path fill="#fff" d="M0 0H192V192H0z"/>
        </clipPath>
    </defs>
</svg>
