<svg xmlns="http://www.w3.org/2000/svg" width="40" height="40" fill="none" viewBox="0 0 40 40">
    <g clip-path="url(#prefix__clip0)">
        <path fill="#FEDFC5" d="M39.333 20.803c-.516-.537-1.208-.81-1.901-.81-.606 0-1.214.208-1.709.63l-7.672 7.062c-.164.14-.372.217-.587.217h-5.756c-.67 0-1.214-.543-1.214-1.214 0-.336.136-.639.355-.858.22-.22.523-.356.859-.356h4.112c1.067 0 1.93-.863 1.93-1.928 0-.534-.215-1.016-.564-1.366-.35-.348-.832-.564-1.366-.564H15.612c-2.09 0-4.1.811-5.603 2.264l-3.992 3.859 3.001 3.959 3.995 3.033.287-.28c.883-.866 2.072-1.351 3.31-1.351h11.723c.783 0 1.528-.338 2.043-.927l8.983-10.28c.275-.315.264-.788-.026-1.09z"/>
        <path fill="#26BED6" d="M13.25 35.858l-3.959 3.958c-.246.245-.644.245-.89 0L.731 32.15c-.246-.246-.246-.644 0-.89l3.96-3.958c.245-.245.644-.245.89 0l7.67 7.666c.246.246.246.644 0 .89z"/>
        <path fill="#E52822" d="M24.572 1.556L23.297 2.83c-.183.184-.48.184-.664 0l-1.275-1.274c-2.076-2.075-5.442-2.075-7.518 0-2.076 2.075-2.076 5.44 0 7.514l1.607 1.607 6.645 6.641c.482.482 1.263.482 1.746 0L32.09 9.07c2.076-2.075 2.076-5.439 0-7.514s-5.442-2.075-7.518 0z"/>
    </g>
    <defs>
        <clipPath id="prefix__clip0">
            <path fill="#fff" d="M0 0H40V40H0z"/>
        </clipPath>
    </defs>
</svg>
