<svg xmlns="http://www.w3.org/2000/svg" width="16" height="16" fill="none" viewBox="0 0 16 16">
    <path fill="#fff" fill-rule="evenodd" d="M8 16c4.418 0 8-3.582 8-8s-3.582-8-8-8-8 3.582-8 8 3.582 8 8 8zm3.395-11.994c.16 0 .314.064.428.178.23.23.23.618 0 .849L8.855 8l2.966 2.967c.237.237.237.619 0 .855-.236.237-.618.237-.855 0L8 8.857l-2.967 2.966c-.237.237-.619.237-.856 0-.236-.236-.236-.618 0-.855L7.144 8 4.177 5.033c-.236-.237-.236-.619 0-.856.114-.113.268-.177.428-.177.16 0 .315.064.428.177L8 7.144l2.967-2.96c.113-.114.267-.178.428-.178z" clip-rule="evenodd"/>
</svg>
