<svg xmlns="http://www.w3.org/2000/svg" width="75" height="51" fill="none" viewBox="0 0 75 51">
    <path fill="#003C71" d="M3.712 21.08l-.091-.044c-.275-.087-.55-.131-.825-.131-1.697 0-2.568 1.307-2.568 3.92 0 .479.046 2.482.138 2.961v3.702c-.092 1.22-.138 1.438-.138 1.481H.32.228c0 2.221 1.284 2.657 2.338 2.657.367 0 .78-.044 1.1-.218.642-.349 1.055-1.002 1.1-1.699v-2.134c0-.522.047-1.306.093-2.351.045-1.046.091-3.267.091-3.877 0-2.264-.412-3.658-1.238-4.268zM.503 32.75c.046.13.046.218 0 .262v-.262zM2.613 20.513h.092l.046-.044c1.283-.479 1.925-1.524 1.925-3.048 0-1.699-1.054-2.047-1.925-2.047h-.413C.825 15.592 0 16.419 0 17.813c0 .697.275 1.35.733 1.829.459.48 1.147.828 1.88.871z"/>
    <path fill="#27BED7" d="M44.606 4.312L26.176 0l-1.374 4.921.504 1.22-.871.043-1.742 6.272 4.217-1.699 1.055 2.309 16.64-8.754z"/>
    <path fill="#003C71" d="M44.606 4.312L26.91 10.757l1.055 2.309 16.64-8.754zM24.801 4.921l.504 1.22 19.3-1.83-19.804.61zM26.222 16.027h-.092c-.55-.087-1.146-.043-1.65.174-.55.131-1.009.523-1.238 1.046-.55 2.09-1.283 4.18-2.154 6.184-.872 1.916-2.063 3.702-3.53 5.27-.184.174-.459.218-.871.087-.688-.218-1.192-.74-1.467-1.393-2.522-5.532-4.31-9.103-5.364-10.67-.413-.61-1.146-1.003-1.925-.959-.321 0-.596.044-.917.087-.55.13-1.055.523-1.238 1.045-.275.48-.321 1.09-.092 1.612 1.834 3.571 3.026 5.88 3.622 7.055.917 2.047 1.559 3.484 1.88 4.312 1.787 4.007 3.483 5.967 5.226 5.967.137 0 .275 0 .412-.044 1.009-.174 2.063-1.394 3.163-3.702 1.33-2.744 2.2-4.66 2.66-5.618 1.283-2.483 2.154-4.181 2.612-5.052v-.044c.23-.61.55-1.22.871-1.829.367-.61.596-1.306.688-2.047 0-.523-.183-1.045-.596-1.437v-.044zM30.806 15.592l-.091-.044c-.275-.087-.55-.13-.871-.13-1.696 0-2.567 1.306-2.567 3.963 0 .522.045 1.045.137 1.524v10.627c-.092 1.22-.137 1.48-.137 1.524l.091.044h-.091c0 2.221 1.283 2.7 2.338 2.7.366 0 .779-.043 1.1-.218.642-.392 1.054-1.045 1.1-1.742v-9.059c0-.566.046-1.35.092-2.395s.091-1.873.091-2.439c.046-2.308-.366-3.745-1.192-4.355zm-3.209 17.203c.046.13.046.218.046.261l-.046-.261zM53.179 16.027h-.092c-.55-.087-1.146-.043-1.65.174-.55.131-1.009.523-1.238 1.046-.596 2.09-1.284 4.18-2.155 6.184-.87 1.916-2.063 3.702-3.53 5.27-.183.174-.458.218-.825.087-.687-.218-1.192-.74-1.467-1.394-2.521-5.487-4.309-9.058-5.363-10.626-.596-.871-1.56-1.133-2.889-.871-.55.13-1.008.522-1.237 1.045-.275.479-.321 1.089-.092 1.611 1.788 3.485 3.026 5.88 3.622 7.056.916 2.047 1.558 3.484 1.925 4.311 1.788 4.007 3.484 5.924 5.226 5.924.138 0 .275 0 .413-.044 1.008-.174 2.063-1.394 3.163-3.702 1.33-2.83 2.2-4.66 2.659-5.618 1.283-2.483 2.154-4.181 2.613-5.052v-.044c.275-.61.55-1.22.917-1.785.366-.61.596-1.307.687-2.047 0-.523-.183-1.046-.55-1.438l-.137-.087zM73.945 23.126c-.138-.74-.183-1.437-.23-2.177v-2.09c0-2.178-.641-3.267-1.879-3.267-1.559 0-2.475.827-2.659 2.395v2.134c0 4.835-.046 7.666-.092 8.362-.137 1.133-.733 2.178-1.604 2.962-.963.958-1.971 1.437-3.026 1.437-.229 0-.458-.043-.687-.13-1.65-.61-3.072-1.743-3.897-3.267-.642-1.22-.963-2.918-.963-5.008v-3.703c.046-1.698-.275-3.353-.825-4.964l-.046-.088-.091-.043c-.367-.305-.871-.48-1.376-.523-.687.044-1.33.436-1.696.958-.458.523-.733 1.133-.78 1.83 0 .305 0 .784.047 1.393.045.61.045 1.046.045 1.35 0 .61 0 1.568-.045 2.788-.046 1.22-.046 2.177-.046 2.787-.046 1.699.183 3.354.733 4.965.871 2.265 1.009 2.526 1.1 2.613 1.376 1.83 3.485 2.744 6.235 2.744.413 0 1.009-.044 1.834-.087.825-.13 1.604-.349 2.338-.653.688-.305 1.421-.523 2.2-.566.55 0 1.1.043 1.65.13.597.087 1.193.13 1.743.13 1.788 0 2.154-.914 2.154-1.698v-8.493c.092-.74 0-1.48-.137-2.22z"/>
    <path fill="#27BED7" d="M51.666 40.068c-.642-.61-1.421-1.045-2.292-1.263-1.055-.348-2.155-.479-3.255-.392-1.971.175-3.76 1.046-5.043 2.483l-.046.043c-.23.305-.413.654-.596.959-.642.914-.963 1.96-.963 3.048 0 2.09 1.055 3.79 3.118 5.009.87.479 1.88.784 2.888.87.458.044.963.088 1.421.088.596 0 1.146-.174 1.65-.436.642-.304 1.1-.566 1.376-.74.87-.48 1.604-1.089 2.2-1.873.596-.697 1.009-1.568 1.192-2.482.046-.174.046-.392.046-.566-.046-.872-.183-1.742-.504-2.57-.275-.784-.688-1.524-1.192-2.178zm-1.513 5.096c.046 1.263-.459 2.439-1.375 3.31 0 0-.092.087-.505.174-1.283.174-1.558.218-1.604.218-.917-.044-1.788-.392-2.43-1.002-.688-.566-1.238-1.35-1.558-2.177-.184-.523-.184-1.481 0-2.875.045-.435.458-.914 1.191-1.437.505-.48 1.192-.784 1.88-.871h.092c1.192-.044 2.383.435 3.163 1.306.78.959 1.238 2.134 1.146 3.354z"/>
    <path fill="#27BED7" d="M40.343 48.735H39.15c-.23 0-.413.044-.642.13-.137.044-.275.088-.413.088-1.237 0-2.475-.523-3.621-1.611-1.146-1.09-1.742-2.178-1.742-3.31-.046-1.046.412-2.09 1.238-2.831.825-.74 1.97-1.133 3.117-1.09.32 0 .596.044.917.132.32.087.688.13 1.008.13.78 0 1.192-.392 1.192-1.045 0-.349-.183-.828-.962-1.132-.459-.175-.917-.262-1.422-.262-1.925 0-3.85.61-5.41 1.699-1.741 1.132-2.75 3.005-2.75 5.008-.046 1.83.871 3.572 2.476 4.617 1.559.958 3.346 1.568 5.226 1.698.183 0 .32.044.504.044.505 0 1.055-.087 1.559-.261.963-.305 1.421-.784 1.421-1.438-.046-.522-.413-.566-.504-.566zM74.862 47.472c0-1.611-.091-3.223-.275-4.79-.412-2.788-1.421-4.356-2.934-4.66-.412-.088-.825-.131-1.238-.131-.87 0-1.696.174-2.521.392-.367.13-.642.348-.917.566-.275.305-.642.522-1.054.566-.505-.044-1.009-.174-1.421-.436-1.376-.653-1.559-.74-1.605-.74-.596-.218-1.192-.305-1.834-.305-.825 0-2.842.218-3.713.74-.458-.348-1.054-.522-1.65-.479-.23 0-.505.044-.734.131-.642.218-.962.566-1.008.958-.092 1.481-.092 4.007 0 7.578 0 .218 0 .523-.046.871 0 .436-.046.74-.046.915 0 1.742.733 2.134 1.375 2.134.413 0 .78-.13 1.146-.305l.092-.043.046-.044c.183-.218.275-.392.367-.523l.045-.087v-.087c0-.827-.045-1.611-.137-2.439-.092-1.263-.138-2.09-.138-2.526-.045-1.001.092-1.96.413-2.918.275-.697.504-1.393.688-2.09.458 0 .916.043 1.375.087l.046.043h.046c1.42.305 1.696.48 1.742.48.412.348.779.783 1.054 1.263.275.435.504.914.596 1.393.138 1.176.183 2.396.138 3.615 0 .174 0 .523-.046.915s-.046.784-.046 1.001c-.046.697.183 1.394.688 1.917.183.174.458.261.733.261 1.192 0 1.513-.48 1.559-.915.137-1.176.183-2.395.137-3.57-.046-1.743-.046-2.962 0-3.529.092-.784.367-1.524.78-2.177.091-.13.229-.262.366-.349.23-.043.505-.087.78-.087.916 0 1.788.218 2.567.697.78.392 1.238 1.089 1.283 1.916.092 4.312.184 6.707.367 7.274.184.784 1.1 1.001 2.292.304.55-.304.78-.696.78-1.045 0-.348-.138-.958-.138-1.742zM29.111 47.342c-.137 0-.32.043-.458.087-.596.261-1.009.87-.917 1.48 0 .436.137.872.412 1.22.23.348.642.566 1.055.523.412 0 .825-.131 1.146-.392.32-.262.458-.654.458-1.046 0-.479-.183-.914-.504-1.263-.32-.348-.733-.566-1.192-.61z"/>
</svg>
