<svg width="328" height="81" viewBox="0 0 328 81" fill="none" xmlns="http://www.w3.org/2000/svg">
<circle cx="25" cy="51" r="3.5" stroke="#828282"/>
<circle cx="118" cy="51" r="3.5" stroke="#26BED6"/>
<circle cx="211" cy="51" r="3.5" stroke="#828282"/>
<circle cx="305" cy="51" r="3.5" stroke="#828282"/>
<line x1="31" y1="50.75" x2="111" y2="50.75" stroke="#828282" stroke-width="0.5" stroke-dasharray="2 2"/>
<line x1="125" y1="50.75" x2="205" y2="50.75" stroke="#828282" stroke-width="0.5" stroke-dasharray="2 2"/>
<line x1="218" y1="50.75" x2="298" y2="50.75" stroke="#828282" stroke-width="0.5" stroke-dasharray="2 2"/>
<path d="M4.14844 75V67.2715H6.98438V66.5449H0.515625V67.2715H3.35156V75H4.14844ZM7.30328 75H8.07086V71.0625C8.07086 70.0664 8.79742 69.3281 9.77594 69.3281C10.0045 69.3281 10.3209 69.3633 10.4615 69.4043V68.6367C10.2916 68.5957 10.0806 68.584 9.86969 68.584C9.0318 68.584 8.32282 69.041 8.11188 69.7266H8.03571V68.6895H7.30328V75ZM13.7863 75.1055C15.5499 75.1055 16.6573 73.8574 16.6573 71.8418C16.6573 69.8262 15.5499 68.584 13.7863 68.584C12.0226 68.584 10.921 69.8262 10.921 71.8418C10.921 73.8574 12.0226 75.1055 13.7863 75.1055ZM13.7863 74.4082C12.4855 74.4082 11.712 73.4414 11.712 71.8418C11.712 70.2422 12.4855 69.2754 13.7863 69.2754C15.087 69.2754 15.8605 70.2422 15.8605 71.8418C15.8605 73.4414 15.087 74.4082 13.7863 74.4082ZM14.2374 66.0117H13.3351L11.7238 67.8047H12.6261L13.7511 66.5332H13.8214L14.9464 67.8047H15.8488L14.2374 66.0117ZM16.1945 65.9824L14.9816 64.2246H14.0792L15.4269 65.9824H16.1945ZM17.9724 75H18.7399V71.25C18.7399 70.0605 19.5016 69.2754 20.6149 69.2754C21.7106 69.2754 22.2614 69.8906 22.2614 71.0918V75H23.029V70.8984C23.029 69.4277 22.2263 68.584 20.82 68.584C19.8122 68.584 19.1149 69.0469 18.7809 69.8262H18.7048V68.6895H17.9724V75ZM27.1096 74.25C25.8499 74.25 25.0881 73.2598 25.0881 71.7656C25.0881 70.2656 25.8499 69.2754 27.1096 69.2754C28.3577 69.2754 29.1604 70.2773 29.1604 71.7773C29.1604 73.2715 28.3752 74.25 27.1096 74.25ZM27.1741 77.3672C28.8323 77.3672 29.9163 76.4648 29.9163 75.0938V68.6895H29.178V69.9375H29.1077C28.762 69.1172 27.9241 68.584 26.9573 68.584C25.3401 68.584 24.2971 69.873 24.2971 71.7656C24.2971 73.6582 25.3342 74.9355 26.9573 74.9355C27.9241 74.9355 28.6975 74.4492 29.0725 73.6172H29.1487V75.0352C29.1487 76.0547 28.3928 76.6934 27.1741 76.6934C26.2131 76.6934 25.5569 76.3184 25.4163 75.7383H24.6018C24.7659 76.7227 25.7268 77.3672 27.1741 77.3672ZM34.4506 75H35.2181V71.0625C35.2181 70.0664 35.9447 69.3281 36.9232 69.3281C37.1517 69.3281 37.4681 69.3633 37.6088 69.4043V68.6367C37.4388 68.5957 37.2279 68.584 37.017 68.584C36.1791 68.584 35.4701 69.041 35.2592 69.7266H35.183V68.6895H34.4506V75ZM40.3535 74.4258C39.5038 74.4258 38.8886 73.9688 38.8886 73.2422C38.8886 72.5215 39.4042 72.123 40.4765 72.0469L42.3456 71.9121V72.6504C42.3456 73.6523 41.4843 74.4258 40.3535 74.4258ZM40.2246 75.1055C41.1503 75.1055 41.9238 74.666 42.3105 73.916H42.3808V75H43.1191V70.6699C43.1191 69.3574 42.2812 68.584 40.7988 68.584C39.4746 68.584 38.496 69.2461 38.3496 70.248H39.1288C39.2812 69.6387 39.9081 69.2695 40.7753 69.2695C41.8007 69.2695 42.3456 69.7734 42.3456 70.6758V71.2852L40.371 71.4141C38.9121 71.5137 38.0976 72.1523 38.0976 73.2539C38.0976 74.3848 38.9882 75.1055 40.2246 75.1055ZM49.731 68.6895H48.9634V72.4395C48.9634 73.6348 48.2485 74.4023 47.0708 74.4023C45.9868 74.4023 45.436 73.7754 45.436 72.5977V68.6895H44.6685V72.791C44.6685 74.2383 45.4653 75.1055 46.8716 75.1055C47.8794 75.1055 48.6118 74.6484 48.9282 73.8633H48.9985V75H49.731V68.6895Z" fill="#828282"/>
<path d="M98.4707 74.1758C100.264 74.1758 101.6 73.1445 101.84 71.5918H101.025C100.791 72.7051 99.7773 73.4316 98.4707 73.4316C96.6895 73.4316 95.5645 72.0137 95.5645 69.7754C95.5645 67.5371 96.6953 66.1133 98.4648 66.1133C99.7363 66.1133 100.779 66.9336 101.025 68.1289H101.84C101.611 66.5234 100.205 65.3691 98.4648 65.3691C96.1738 65.3691 94.7441 67.0625 94.7441 69.7754C94.7441 72.4883 96.1738 74.1758 98.4707 74.1758ZM103.237 74H104.004V70.25C104.004 69.0898 104.749 68.2754 105.944 68.2754C106.999 68.2754 107.573 68.9023 107.573 70.0918V74H108.34V69.8984C108.34 68.4395 107.497 67.584 106.149 67.584C105.141 67.584 104.415 68.0469 104.075 68.8262H104.004V65.1758H103.237V74ZM114.935 67.6895H114.167V71.4395C114.167 72.6348 113.452 73.4023 112.275 73.4023C111.191 73.4023 110.64 72.7754 110.64 71.5977V67.6895H109.872V71.791C109.872 73.2383 110.669 74.1055 112.075 74.1055C113.083 74.1055 113.816 73.6484 114.132 72.8633H114.202V74H114.935V67.6895ZM118.465 73.4258C117.615 73.4258 117 72.9688 117 72.2422C117 71.5215 117.515 71.123 118.588 71.0469L120.457 70.9121V71.6504C120.457 72.6523 119.595 73.4258 118.465 73.4258ZM118.336 74.1055C119.261 74.1055 120.035 73.666 120.422 72.916H120.492V74H121.23V69.6699C121.23 68.3574 120.392 67.584 118.91 67.584C117.586 67.584 116.607 68.2461 116.461 69.248H117.24C117.392 68.6387 118.019 68.2695 118.886 68.2695C119.912 68.2695 120.457 68.7734 120.457 69.6758V70.2852L118.482 70.4141C117.023 70.5137 116.209 71.1523 116.209 72.2539C116.209 73.3848 117.099 74.1055 118.336 74.1055ZM119.724 63.9863C119.871 63.9043 120.123 63.8398 120.381 63.8398C120.726 63.8398 120.978 64.0332 120.978 64.3086C120.978 64.5605 120.738 64.8184 120.381 64.9355L120.732 65.3867C121.283 65.1875 121.652 64.7305 121.652 64.2559C121.652 63.6582 121.201 63.2832 120.468 63.2832C120.193 63.2832 119.888 63.3418 119.724 63.418V63.9863ZM119.361 65.0117H118.459L116.847 66.8047H117.75L118.875 65.5332H118.945L120.07 66.8047H120.972L119.361 65.0117ZM122.832 74H123.6V70.25C123.6 69.0605 124.362 68.2754 125.475 68.2754C126.571 68.2754 127.121 68.8906 127.121 70.0918V74H127.889V69.8984C127.889 68.4277 127.086 67.584 125.68 67.584C124.672 67.584 123.975 68.0469 123.641 68.8262H123.565V67.6895H122.832V74ZM135.4 74.1055C136.994 74.1055 138.054 72.7988 138.054 70.8418C138.054 68.873 136.999 67.584 135.4 67.584C134.445 67.584 133.624 68.0938 133.273 68.9141H133.203V65.1758H132.435V74H133.167V72.7402H133.244C133.619 73.5898 134.433 74.1055 135.4 74.1055ZM135.242 68.2754C136.484 68.2754 137.263 69.2656 137.263 70.8359C137.263 72.4121 136.484 73.4082 135.242 73.4082C133.999 73.4082 133.185 72.3945 133.185 70.8418C133.185 69.2891 133.999 68.2754 135.242 68.2754ZM139.404 74H140.172V67.6895H139.404V74ZM139.785 66.2832C140.102 66.2832 140.359 66.0254 140.359 65.709C140.359 65.3984 140.102 65.1406 139.785 65.1406C139.475 65.1406 139.217 65.3984 139.217 65.709C139.217 66.0254 139.475 66.2832 139.785 66.2832ZM139.785 76.127C140.125 76.127 140.4 75.8574 140.4 75.5176C140.4 75.1777 140.125 74.9023 139.785 74.9023C139.445 74.9023 139.17 75.1777 139.17 75.5176C139.17 75.8574 139.445 76.127 139.785 76.127Z" fill="#26BED6"/>
<path d="M191.057 70.7246V69.7871H187.682V70.4961H190.26V70.7891C190.26 72.3828 189.188 73.4316 187.529 73.4316C185.725 73.4316 184.564 71.9902 184.564 69.7695C184.564 67.5547 185.725 66.1133 187.512 66.1133C188.848 66.1133 189.809 66.8105 190.16 68.0176H190.975C190.67 66.4062 189.316 65.3691 187.512 65.3691C185.238 65.3691 183.744 67.1211 183.744 69.7695C183.744 72.4355 185.238 74.1758 187.529 74.1758C189.668 74.1758 191.057 72.8164 191.057 70.7246ZM192.506 74H193.274V67.6895H192.506V74ZM192.887 66.2832C193.204 66.2832 193.461 66.0254 193.461 65.709C193.461 65.3984 193.204 65.1406 192.887 65.1406C192.577 65.1406 192.319 65.3984 192.319 65.709C192.319 66.0254 192.577 66.2832 192.887 66.2832ZM196.827 73.4258C195.978 73.4258 195.362 72.9688 195.362 72.2422C195.362 71.5215 195.878 71.123 196.95 71.0469L198.819 70.9121V71.6504C198.819 72.6523 197.958 73.4258 196.827 73.4258ZM196.698 74.1055C197.624 74.1055 198.398 73.666 198.784 72.916H198.855V74H199.593V69.6699C199.593 68.3574 198.755 67.584 197.273 67.584C195.948 67.584 194.97 68.2461 194.823 69.248H195.603C195.755 68.6387 196.382 68.2695 197.249 68.2695C198.275 68.2695 198.819 68.7734 198.819 69.6758V70.2852L196.845 70.4141C195.386 70.5137 194.571 71.1523 194.571 72.2539C194.571 73.3848 195.462 74.1055 196.698 74.1055ZM203.744 74.1055C205.508 74.1055 206.615 72.8574 206.615 70.8418C206.615 68.8262 205.508 67.584 203.744 67.584C201.98 67.584 200.879 68.8262 200.879 70.8418C200.879 72.8574 201.98 74.1055 203.744 74.1055ZM203.744 73.4082C202.443 73.4082 201.67 72.4414 201.67 70.8418C201.67 69.2422 202.443 68.2754 203.744 68.2754C205.045 68.2754 205.818 69.2422 205.818 70.8418C205.818 72.4414 205.045 73.4082 203.744 73.4082ZM210.891 74H211.659V70.25C211.659 69.0898 212.403 68.2754 213.598 68.2754C214.653 68.2754 215.227 68.9023 215.227 70.0918V74H215.995V69.8984C215.995 68.4395 215.151 67.584 213.804 67.584C212.796 67.584 212.069 68.0469 211.729 68.8262H211.659V65.1758H210.891V74ZM219.466 73.4258C218.617 73.4258 218.001 72.9688 218.001 72.2422C218.001 71.5215 218.517 71.123 219.589 71.0469L221.458 70.9121V71.6504C221.458 72.6523 220.597 73.4258 219.466 73.4258ZM219.337 74.1055C220.263 74.1055 221.037 73.666 221.423 72.916H221.494V74H222.232V69.6699C222.232 68.3574 221.394 67.584 219.912 67.584C218.587 67.584 217.609 68.2461 217.462 69.248H218.242C218.394 68.6387 219.021 68.2695 219.888 68.2695C220.913 68.2695 221.458 68.7734 221.458 69.6758V70.2852L219.484 70.4141C218.025 70.5137 217.21 71.1523 217.21 72.2539C217.21 73.3848 218.101 74.1055 219.337 74.1055ZM220.48 66.5762L219.015 64.6602H218.031L219.607 66.5762H220.48ZM223.834 74H224.602V70.25C224.602 69.0605 225.363 68.2754 226.477 68.2754C227.572 68.2754 228.123 68.8906 228.123 70.0918V74H228.891V69.8984C228.891 68.4277 228.088 67.584 226.682 67.584C225.674 67.584 224.977 68.0469 224.643 68.8262H224.566V67.6895H223.834V74ZM232.971 73.25C231.711 73.25 230.95 72.2598 230.95 70.7656C230.95 69.2656 231.711 68.2754 232.971 68.2754C234.219 68.2754 235.022 69.2773 235.022 70.7773C235.022 72.2715 234.237 73.25 232.971 73.25ZM233.036 76.3672C234.694 76.3672 235.778 75.4648 235.778 74.0938V67.6895H235.04V68.9375H234.969C234.624 68.1172 233.786 67.584 232.819 67.584C231.202 67.584 230.159 68.873 230.159 70.7656C230.159 72.6582 231.196 73.9355 232.819 73.9355C233.786 73.9355 234.559 73.4492 234.934 72.6172H235.01V74.0352C235.01 75.0547 234.254 75.6934 233.036 75.6934C232.075 75.6934 231.418 75.3184 231.278 74.7383H230.463C230.627 75.7227 231.588 76.3672 233.036 76.3672Z" fill="#828282"/>
<path d="M289.635 74V65.5449H288.832V69.3066H283.887V65.5449H283.084V74H283.887V70.0332H288.832V74H289.635ZM293.915 74.1055C295.678 74.1055 296.786 72.8574 296.786 70.8418C296.786 68.8262 295.678 67.584 293.915 67.584C292.151 67.584 291.049 68.8262 291.049 70.8418C291.049 72.8574 292.151 74.1055 293.915 74.1055ZM293.915 73.4082C292.614 73.4082 291.84 72.4414 291.84 70.8418C291.84 69.2422 292.614 68.2754 293.915 68.2754C295.215 68.2754 295.989 69.2422 295.989 70.8418C295.989 72.4414 295.215 73.4082 293.915 73.4082ZM299.987 73.4258C299.138 73.4258 298.523 72.9688 298.523 72.2422C298.523 71.5215 299.038 71.123 300.11 71.0469L301.98 70.9121V71.6504C301.98 72.6523 301.118 73.4258 299.987 73.4258ZM299.859 74.1055C300.784 74.1055 301.558 73.666 301.944 72.916H302.015V74H302.753V69.6699C302.753 68.3574 301.915 67.584 300.433 67.584C299.109 67.584 298.13 68.2461 297.984 69.248H298.763C298.915 68.6387 299.542 68.2695 300.409 68.2695C301.435 68.2695 301.98 68.7734 301.98 69.6758V70.2852L300.005 70.4141C298.546 70.5137 297.732 71.1523 297.732 72.2539C297.732 73.3848 298.622 74.1055 299.859 74.1055ZM301.001 66.5762L299.536 64.6602H298.552L300.128 66.5762H301.001ZM304.355 74H305.123V70.25C305.123 69.0605 305.884 68.2754 306.998 68.2754C308.093 68.2754 308.644 68.8906 308.644 70.0918V74H309.412V69.8984C309.412 68.4277 308.609 67.584 307.203 67.584C306.195 67.584 305.498 68.0469 305.164 68.8262H305.088V67.6895H304.355V74ZM314.298 66.0488V67.6895H313.266V68.3398H314.298V72.4297C314.298 73.5781 314.778 74.0352 315.985 74.0352C316.12 74.0352 316.389 74.0176 316.524 73.9941V73.3379C316.395 73.3496 316.19 73.3555 316.067 73.3555C315.358 73.3555 315.065 73.0273 315.065 72.2539V68.3398H316.524V67.6895H315.065V66.0488H314.298ZM319.591 73.4258C318.742 73.4258 318.126 72.9688 318.126 72.2422C318.126 71.5215 318.642 71.123 319.714 71.0469L321.583 70.9121V71.6504C321.583 72.6523 320.722 73.4258 319.591 73.4258ZM319.462 74.1055C320.388 74.1055 321.162 73.666 321.548 72.916H321.619V74H322.357V69.6699C322.357 68.3574 321.519 67.584 320.037 67.584C318.712 67.584 317.734 68.2461 317.587 69.248H318.367C318.519 68.6387 319.146 68.2695 320.013 68.2695C321.038 68.2695 321.583 68.7734 321.583 69.6758V70.2852L319.609 70.4141C318.15 70.5137 317.335 71.1523 317.335 72.2539C317.335 73.3848 318.226 74.1055 319.462 74.1055ZM320.488 65.0117H319.585L317.974 66.8047H318.876L320.001 65.5332H320.072L321.197 66.8047H322.099L320.488 65.0117ZM321.214 64.9824H321.994L323.329 63.248H322.433L321.214 64.9824ZM324.357 66.0488V67.6895H323.326V68.3398H324.357V72.4297C324.357 73.5781 324.838 74.0352 326.045 74.0352C326.18 74.0352 326.449 74.0176 326.584 73.9941V73.3379C326.455 73.3496 326.25 73.3555 326.127 73.3555C325.418 73.3555 325.125 73.0273 325.125 72.2539V68.3398H326.584V67.6895H325.125V66.0488H324.357Z" fill="#828282"/>
<g opacity="0.4">
<g clip-path="url(#clip0)">
<path d="M37.4717 27.0078C38.1778 27.7932 38.6611 28.753 38.8717 29.7878C39.465 29.2818 40.2187 29.003 40.9984 29.0011C42.4606 28.9921 43.758 29.9371 44.198 31.3316C44.6379 32.7261 44.1176 34.2445 42.9148 35.0762C41.7121 35.9078 40.1077 35.8585 38.9584 34.9545C38.6847 37.3132 36.883 39.2061 34.5407 39.5957C32.1983 39.9853 29.8808 38.7776 28.8584 36.6345C28.1182 38.0853 26.6271 38.9985 24.9984 38.9985C23.3697 38.9985 21.8785 38.0853 21.1384 36.6345C20.1159 38.7776 17.7985 39.9853 15.4561 39.5957C13.1137 39.2061 11.312 37.3132 11.0384 34.9545C9.66085 36.0394 7.67828 35.8716 6.50269 34.5706C5.32709 33.2696 5.36046 31.2802 6.57903 30.0193C7.7976 28.7585 9.78468 28.6573 11.125 29.7878C11.3357 28.753 11.819 27.7932 12.525 27.0078H37.4717Z" fill="#CB8252"/>
<path d="M24.9998 27.6683C20.9998 27.6683 19.6665 30.335 19.6665 30.335C17.4065 29.4883 15.7465 29.595 14.5798 30.0083C11.8331 26.6417 9.3398 20.8483 7.83313 16.7683C7.53266 15.9851 7.63215 15.1047 8.09979 14.4083C10.7265 10.595 15.4931 9.40166 18.2131 9.02833C19.4147 8.85373 20.5858 9.49921 21.0798 10.6083C23.3798 15.9483 24.6931 23.3283 24.9998 27.6683Z" fill="#F59233"/>
<path d="M42.1667 16.7683C40.66 20.8483 38.1667 26.6417 35.42 30.0083C34.2533 29.595 32.5933 29.4883 30.3333 30.335C30.3333 30.335 29 27.6683 25 27.6683C25.3067 23.3283 26.62 15.9483 28.92 10.6083C29.414 9.49921 30.5851 8.85373 31.7867 9.02833C34.5067 9.40166 39.2733 10.595 41.9 14.4083C42.3676 15.1047 42.4671 15.9851 42.1667 16.7683Z" fill="#F59233"/>
<path d="M14.723 20.5584C14.0786 20.5619 13.4367 20.4778 12.815 20.3084C12.4703 20.2003 12.2744 19.8374 12.3732 19.4899C12.4721 19.1424 12.8297 18.9369 13.1797 19.0264C13.3483 19.0737 17.3457 20.1491 19.0683 16.7031C19.2329 16.3735 19.6335 16.2398 19.963 16.4044C20.2925 16.569 20.4262 16.9695 20.2617 17.2991C19.2204 19.3833 17.0506 20.6601 14.723 20.5584V20.5584Z" fill="#E57E25"/>
<path d="M16.723 25.8924C16.0786 25.8958 15.4367 25.8117 14.815 25.6424C14.4703 25.5343 14.2744 25.1713 14.3732 24.8239C14.4721 24.4764 14.8297 24.2709 15.1797 24.3604C15.3483 24.4077 19.3457 25.4831 21.0683 22.0371C21.2329 21.7075 21.6335 21.5738 21.963 21.7384C22.2925 21.903 22.4262 22.3035 22.2617 22.6331C21.2204 24.7173 19.0506 25.9941 16.723 25.8924V25.8924Z" fill="#E57E25"/>
<path d="M11.8137 8.14041C12.1903 7.21708 12.8683 5.16841 12.2983 3.45708C12.182 3.1073 11.8041 2.91806 11.4543 3.03441C11.1046 3.15076 10.9153 3.52863 11.0317 3.87841C11.2659 4.85115 11.2086 5.87132 10.867 6.81174C10.5143 6.33441 10.143 5.85574 9.75768 5.38841C10.1817 3.25041 8.98368 0.813742 8.93235 0.703075C8.76777 0.373545 8.36721 0.239828 8.03768 0.404409C7.70815 0.56899 7.57443 0.969545 7.73901 1.29908C8.13508 2.13687 8.3892 3.03465 8.49101 3.95574C7.74799 3.15957 6.93172 2.43505 6.05301 1.79174C5.75331 1.57782 5.33693 1.64737 5.12301 1.94708C4.90909 2.24678 4.97864 2.66316 5.27835 2.87708C6.23028 3.57986 7.10536 4.38119 7.88901 5.26774C7.20897 5.3397 6.52144 5.25931 5.87635 5.03241C5.52657 4.91606 5.14869 5.1053 5.03235 5.45508C4.916 5.80486 5.10523 6.18273 5.45501 6.29907C6.08574 6.51329 6.74691 6.62427 7.41301 6.62774C7.90766 6.63072 8.40005 6.56086 8.87435 6.42041C9.26435 6.90174 9.63901 7.39508 9.99635 7.88708C9.06415 8.01944 8.11458 7.95587 7.20835 7.70041C6.85857 7.58443 6.48099 7.77396 6.36501 8.12374C6.24903 8.47352 6.43857 8.8511 6.78835 8.96708C7.5289 9.18999 8.29831 9.30231 9.07168 9.30041C9.66387 9.30092 10.2537 9.2261 10.827 9.07774C11.8893 10.6512 12.8605 12.2843 13.7357 13.9691C13.9003 14.2986 14.3008 14.4323 14.6303 14.2677C14.9599 14.1032 15.0936 13.7026 14.929 13.3731C13.999 11.5665 12.9586 9.81899 11.8137 8.14041V8.14041Z" fill="#26B99A"/>
<path d="M44.9639 5.45731C44.908 5.28949 44.7878 5.15074 44.6296 5.07159C44.4715 4.99244 44.2883 4.97939 44.1205 5.03531C43.4751 5.26185 42.7875 5.34223 42.1072 5.27064C42.891 4.38315 43.7663 3.58093 44.7185 2.87731C44.9124 2.73893 45.0177 2.50763 44.9948 2.27053C44.9719 2.03344 44.8243 1.82658 44.6075 1.72787C44.3907 1.62916 44.1377 1.65359 43.9439 1.79197C43.0623 2.43701 42.2438 3.16403 41.4992 3.96331C41.6093 3.03946 41.8666 2.13919 42.2612 1.29664C42.4256 0.96711 42.2917 0.566704 41.9622 0.402307C41.6327 0.23791 41.2323 0.371777 41.0679 0.701307C41.0132 0.811973 39.8152 3.24864 40.2392 5.38664C39.8532 5.85331 39.4819 6.33197 39.1279 6.80931C38.7914 5.86782 38.7344 4.8491 38.9639 3.87597C39.0802 3.52619 38.891 3.14832 38.5412 3.03197C38.1914 2.91563 37.8135 3.10486 37.6972 3.45464C37.1272 5.16597 37.8052 7.21464 38.1819 8.13797C37.037 9.81548 35.9966 11.5619 35.0665 13.3673C34.9019 13.6968 35.0357 14.0974 35.3652 14.262C35.6947 14.4266 36.0953 14.2928 36.2599 13.9633C37.1346 12.2785 38.1056 10.6453 39.1679 9.07197C39.7414 9.22037 40.3315 9.29519 40.9239 9.29464C41.6972 9.29647 42.4666 9.18414 43.2072 8.96131C43.4335 8.88604 43.6024 8.69578 43.6503 8.4622C43.6983 8.22861 43.618 7.98719 43.4397 7.82886C43.2614 7.67054 43.0121 7.61938 42.7859 7.69464C41.8803 7.95395 40.9299 8.01758 39.9979 7.88131C40.3552 7.38931 40.7312 6.89664 41.1205 6.41464C41.5949 6.5558 42.0876 6.62589 42.5825 6.62264C43.2486 6.61922 43.9098 6.50823 44.5405 6.29397C44.8871 6.1782 45.0759 5.80508 44.9639 5.45731V5.45731Z" fill="#26B99A"/>
<path d="M35.2745 20.5584C32.9457 20.6616 30.7742 19.3846 29.7325 17.2991C29.568 16.9695 29.7017 16.569 30.0312 16.4044C30.3607 16.2398 30.7613 16.3735 30.9259 16.7031C32.6592 20.1697 36.6452 19.0751 36.8125 19.0271C37.162 18.938 37.5189 19.143 37.6181 19.4897C37.7173 19.8364 37.5229 20.1991 37.1792 20.3084C36.5585 20.4775 35.9178 20.5616 35.2745 20.5584V20.5584Z" fill="#E57E25"/>
<path d="M33.2744 25.8923C30.9455 25.9955 28.774 24.7184 27.7324 22.6329C27.6259 22.4197 27.6413 22.166 27.7726 21.9672C27.904 21.7684 28.1315 21.6548 28.3693 21.6692C28.6072 21.6836 28.8193 21.8237 28.9257 22.0369C30.6591 25.5036 34.6451 24.4089 34.8124 24.3609C35.1618 24.2719 35.5187 24.4768 35.6179 24.8235C35.7171 25.1702 35.5227 25.533 35.179 25.6423C34.5584 25.8113 33.9177 25.8954 33.2744 25.8923V25.8923Z" fill="#E57E25"/>
<path d="M36.9993 15.0013C35.8467 15.0013 33.666 14.444 33.666 12.3346C33.666 11.9664 33.9645 11.668 34.3327 11.668C34.7009 11.668 34.9993 11.9664 34.9993 12.3346C34.9993 13.64 36.9193 13.668 36.9993 13.668C37.3675 13.668 37.666 13.9664 37.666 14.3346C37.666 14.7028 37.3675 15.0013 36.9993 15.0013Z" fill="#E57E25"/>
<path d="M37.6672 32.3333C37.4343 32.3335 37.2183 32.2122 37.0972 32.0133C37.0172 31.8847 35.2632 29.1953 30.5639 30.958C30.2442 31.0779 29.8856 30.9369 29.7332 30.6313C29.6912 30.542 28.5065 28.3333 25.0005 28.3333C21.4539 28.3333 20.2752 30.6087 20.2672 30.6313C20.1148 30.9369 19.7562 31.0779 19.4365 30.958C14.7298 29.192 12.9778 31.898 12.9032 32.014C12.7125 32.329 12.3025 32.4297 11.9875 32.239C11.6725 32.0483 11.5718 31.6383 11.7625 31.3233C11.7845 31.2867 13.9778 27.758 19.3939 29.5307C20.0359 28.6667 21.7012 27 25.0005 27C28.2999 27 29.9652 28.6667 30.6072 29.5333C36.0232 27.7613 38.2165 31.2893 38.2385 31.326C38.3608 31.5318 38.3635 31.7873 38.2454 31.9956C38.1273 32.2038 37.9066 32.3327 37.6672 32.3333V32.3333Z" fill="#A56A43"/>
<path d="M17.666 35.6686C16.5614 35.6686 15.666 34.7732 15.666 33.6686C15.666 33.3004 15.9645 33.002 16.3327 33.002C16.7009 33.002 16.9993 33.3004 16.9993 33.6686C16.9993 34.0368 17.2978 34.3353 17.666 34.3353C18.0342 34.3353 18.3327 34.0368 18.3327 33.6686C18.3327 33.3004 18.6312 33.002 18.9993 33.002C19.3675 33.002 19.666 33.3004 19.666 33.6686C19.666 34.7732 18.7706 35.6686 17.666 35.6686Z" fill="#A56A43"/>
<path d="M27 33.6686C25.8954 33.6686 25 32.7732 25 31.6686C25 31.3004 25.2985 31.002 25.6667 31.002C26.0349 31.002 26.3333 31.3004 26.3333 31.6686C26.3333 32.0368 26.6318 32.3353 27 32.3353C27.3682 32.3353 27.6667 32.0368 27.6667 31.6686C27.6667 31.3004 27.9651 31.002 28.3333 31.002C28.7015 31.002 29 31.3004 29 31.6686C29 32.7732 28.1046 33.6686 27 33.6686Z" fill="#A56A43"/>
<path d="M34.332 36.3346C33.2275 36.3346 32.332 35.4392 32.332 34.3346C32.332 33.9664 32.6305 33.668 32.9987 33.668C33.3669 33.668 33.6654 33.9664 33.6654 34.3346C33.6654 34.7028 33.9638 35.0013 34.332 35.0013C34.7002 35.0013 34.9987 34.7028 34.9987 34.3346C34.9987 33.9664 35.2972 33.668 35.6654 33.668C36.0335 33.668 36.332 33.9664 36.332 34.3346C36.332 35.4392 35.4366 36.3346 34.332 36.3346Z" fill="#A56A43"/>
<path d="M22.3327 33.6693C22.7009 33.6693 22.9994 33.3708 22.9994 33.0026C22.9994 32.6344 22.7009 32.3359 22.3327 32.3359C21.9645 32.3359 21.666 32.6344 21.666 33.0026C21.666 33.3708 21.9645 33.6693 22.3327 33.6693Z" fill="#805333"/>
<path d="M24.9987 36.3333C25.3669 36.3333 25.6654 36.0348 25.6654 35.6667C25.6654 35.2985 25.3669 35 24.9987 35C24.6305 35 24.332 35.2985 24.332 35.6667C24.332 36.0348 24.6305 36.3333 24.9987 36.3333Z" fill="#805333"/>
<path d="M30.9987 33.6693C31.3669 33.6693 31.6654 33.3708 31.6654 33.0026C31.6654 32.6344 31.3669 32.3359 30.9987 32.3359C30.6305 32.3359 30.332 32.6344 30.332 33.0026C30.332 33.3708 30.6305 33.6693 30.9987 33.6693Z" fill="#805333"/>
<path d="M14.9987 37.0013C15.3669 37.0013 15.6654 36.7028 15.6654 36.3346C15.6654 35.9664 15.3669 35.668 14.9987 35.668C14.6305 35.668 14.332 35.9664 14.332 36.3346C14.332 36.7028 14.6305 37.0013 14.9987 37.0013Z" fill="#805333"/>
<path d="M6.33268 27.6673C6.70087 27.6673 6.99935 27.3688 6.99935 27.0006C6.99935 26.6325 6.70087 26.334 6.33268 26.334C5.96449 26.334 5.66602 26.6325 5.66602 27.0006C5.66602 27.3688 5.96449 27.6673 6.33268 27.6673Z" fill="#CB8252"/>
<path d="M9.00065 26.3333C9.36884 26.3333 9.66732 26.0348 9.66732 25.6667C9.66732 25.2985 9.36884 25 9.00065 25C8.63246 25 8.33398 25.2985 8.33398 25.6667C8.33398 26.0348 8.63246 26.3333 9.00065 26.3333Z" fill="#CB8252"/>
<path d="M43.6647 27.6673C44.0329 27.6673 44.3314 27.3688 44.3314 27.0006C44.3314 26.6325 44.0329 26.334 43.6647 26.334C43.2965 26.334 42.998 26.6325 42.998 27.0006C42.998 27.3688 43.2965 27.6673 43.6647 27.6673Z" fill="#CB8252"/>
<path d="M41.0006 26.3333C41.3688 26.3333 41.6673 26.0348 41.6673 25.6667C41.6673 25.2985 41.3688 25 41.0006 25C40.6325 25 40.334 25.2985 40.334 25.6667C40.334 26.0348 40.6325 26.3333 41.0006 26.3333Z" fill="#CB8252"/>
<path d="M12.9987 15.0013C12.6305 15.0013 12.332 14.7028 12.332 14.3346C12.332 13.9664 12.6305 13.668 12.9987 13.668C13.0914 13.668 14.9987 13.6366 14.9987 12.3346C14.9987 11.9664 15.2972 11.668 15.6654 11.668C16.0335 11.668 16.332 11.9664 16.332 12.3346C16.332 14.444 14.1514 15.0013 12.9987 15.0013Z" fill="#E57E25"/>
</g>
</g>
<g clip-path="url(#clip1)">
<path d="M111.501 16.1615L99.3168 12.8327C98.5857 12.6351 98.153 11.8822 98.3506 11.1508C98.5482 10.4197 99.3011 9.98694 100.032 10.1845L111.425 13.2634L111.501 16.1615Z" fill="#003C71"/>
<path d="M110.467 13.0039L110.377 13.299C110.141 14.0907 109.985 14.9039 109.912 15.7271L111.501 16.1612L111.425 13.2625L110.467 13.0039Z" fill="#003C71"/>
<path d="M134.991 19.6338C134.467 18.2868 129.748 16.085 123.743 14.462C117.737 12.839 112.554 12.3651 111.422 13.2643L111.197 13.5587L110.929 14.5518C109.94 18.2087 112.103 21.9746 115.76 22.9632L126.355 25.8261C130.013 26.8165 133.781 24.6529 134.769 20.9946L135.05 19.8924L134.991 19.6338Z" fill="#26BED6"/>
<path d="M123.741 14.4727C117.161 12.693 111.546 12.2874 111.2 13.5671C110.854 14.8465 115.908 17.3262 122.488 19.106C129.068 20.8858 134.683 21.2913 135.029 20.0119C135.375 18.7322 130.321 16.2525 123.741 14.4727Z" fill="#003C71"/>
<path d="M123.028 17.1107C117.63 15.6521 113.134 14.914 112.986 15.4626C112.838 16.0112 117.093 17.6385 122.491 19.0974C127.889 20.556 132.385 21.2942 132.533 20.7456C132.681 20.197 128.426 18.5696 123.028 17.1107V17.1107Z" fill="#003C71"/>
<path d="M120.456 22.0592C120.391 22.0589 120.326 22.0492 120.263 22.0311C119.811 21.8978 119.369 21.7625 118.935 21.6248C118.574 21.5103 118.375 21.1244 118.49 20.7634C118.604 20.4024 118.99 20.2028 119.351 20.3176C119.774 20.4519 120.207 20.5846 120.649 20.7148C120.977 20.8103 121.185 21.1328 121.136 21.4708C121.088 21.809 120.798 22.0599 120.456 22.0592Z" fill="#003C71"/>
<path d="M124.441 23.09C124.391 23.09 124.34 23.0843 124.291 23.0736C123.847 22.9748 123.397 22.8686 122.939 22.7551C122.578 22.659 122.36 22.2905 122.45 21.9275C122.54 21.5641 122.905 21.3401 123.269 21.4238C123.716 21.5343 124.157 21.6378 124.589 21.7346C124.93 21.8106 125.16 22.1311 125.122 22.4784C125.084 22.8261 124.79 23.0893 124.441 23.09V23.09Z" fill="#003C71"/>
<path d="M123.988 2.74219H126.732V6.17176H123.988V2.74219Z" fill="#F7BA61"/>
<path d="M123.988 2.74219H126.732V4.45697H123.988V2.74219Z" fill="#EA9D2D"/>
<path d="M124.33 0H126.388C127.335 0 128.103 0.767633 128.103 1.71478C128.103 2.66193 127.335 3.42956 126.388 3.42956H124.33C123.383 3.42956 122.615 2.66193 122.615 1.71478C122.615 0.767633 123.383 0 124.33 0Z" fill="#985713"/>
<path d="M129.465 7.63143L132.123 5.46484L134.29 8.12309L131.632 10.29L129.465 7.63143Z" fill="#AAC16B"/>
<path d="M129.463 7.63118L131.783 5.74023L133.725 8.1225L131.405 10.0138L129.463 7.63118Z" fill="#A4BB67"/>
<path d="M121.244 5.48743C121.244 6.6238 120.323 7.54517 119.187 7.54517C118.05 7.54517 117.129 6.6238 117.129 5.48743C117.129 4.35105 118.05 3.42969 119.187 3.42969C120.323 3.42969 121.244 4.35105 121.244 5.48743Z" fill="#F55648"/>
<path d="M119.077 3.43945C118.473 3.47127 117.915 3.76834 117.551 4.25163C117.18 4.88697 117.275 5.69144 117.785 6.22229C118.295 6.75314 119.095 6.88107 119.745 6.53577C120.394 6.19081 120.736 5.456 120.582 4.73659C120.428 4.01719 119.814 3.48735 119.08 3.43945H119.077Z" fill="#FF5A4B"/>
<path d="M118.5 9.60352H119.872V10.9753H118.5V9.60352Z" fill="#FBEDBF"/>
<path d="M124.674 8.23242H126.046V9.60425H124.674V8.23242Z" fill="#FBEDBF"/>
<path d="M124.674 10.9746H126.046V13.0324H124.674V10.9746Z" fill="#FBEDBF"/>
<path d="M132.219 11.6621H133.591V13.0339H132.219V11.6621Z" fill="#FBEDBF"/>
<path d="M132.219 14.4062H133.591V15.7781H132.219V14.4062Z" fill="#FBEDBF"/>
<path d="M113.946 39.7828L113.289 37.8142C112.833 36.4464 112.972 34.9496 113.673 33.6893L116.003 29.4941V33.2667C116.003 34.3796 116.365 35.4627 117.032 36.3533C117.7 37.2438 118.061 38.3269 118.061 39.4399V39.7828H113.946Z" fill="#F59233"/>
<path d="M109.662 38.0314L110.963 37.5977L111.619 39.566L110.318 40L109.662 38.0314Z" fill="#FBEDBF"/>
<path d="M110.9 31.9054L112.425 29.1621L113.625 29.8286L112.099 32.5719L110.9 31.9054Z" fill="#FBEDBF"/>
<path d="M109.661 38.0306C109.146 36.4799 109.304 34.7846 110.097 33.3555L111.295 34.0223C110.689 35.1148 110.569 36.4116 110.963 37.5972L109.661 38.0306Z" fill="#FBEDBF"/>
<path d="M127.339 33.6904L125.008 29.4952V33.2678C125.008 34.3807 124.647 35.4638 123.979 36.3544C123.887 36.4773 123.816 36.6116 123.736 36.7412C124.043 35.287 123.815 33.7711 123.094 32.4713L120.297 27.4375V31.9646C120.297 33.3002 119.864 34.5997 119.063 35.6685C118.261 36.7372 117.828 38.0367 117.828 39.3723V39.7839H127.066L127.722 37.8153C128.178 36.4475 128.039 34.9507 127.339 33.6904V33.6904Z" fill="#F59233"/>
<path d="M127.281 29.8283L128.48 29.1621L129.401 30.8186L128.202 31.4851L127.281 29.8283Z" fill="#FBEDBF"/>
<path d="M131.546 36.3768L130.174 36.3326C130.199 35.5268 130.006 34.729 129.615 34.024L128.891 32.7208L130.09 32.0547L130.814 33.3579C131.326 34.2795 131.579 35.3228 131.546 36.3768Z" fill="#FBEDBF"/>
<path d="M129.287 39.5648L129.745 38.1934L131.045 38.6274L130.588 39.9989L129.287 39.5648Z" fill="#FBEDBF"/>
<path d="M113.098 27.8152L113.784 26.4434L115.011 27.0569L114.325 28.4288L113.098 27.8152Z" fill="#FBEDBF"/>
<path d="M136.83 10.087L135.86 9.11709C136.426 8.55007 136.514 7.66287 136.071 6.99572L135.775 6.55095L136.917 5.79102L137.212 6.23411C138.017 7.44618 137.857 9.0568 136.83 10.087Z" fill="#FBEDBF"/>
<path d="M116.544 20.7583C116.876 20.7583 117.16 20.5212 117.219 20.195C117.279 19.8688 117.096 19.5469 116.786 19.4304C114.174 18.446 112.217 17.4356 111.436 16.6743L110.778 15.9884C110.755 15.9697 110.731 15.9526 110.705 15.9375C110.664 16.6381 110.732 17.3408 110.905 18.0207C112.574 19.1587 114.39 20.065 116.302 20.7144C116.38 20.7432 116.462 20.758 116.544 20.7583Z" fill="#003C71"/>
</g>
<g opacity="0.4">
<g clip-path="url(#clip2)">
<path d="M221.289 9.17268C220.99 9.17268 220.732 8.94715 220.699 8.64228C220.696 8.61787 220.489 6.81336 219.768 5.31465C219.61 4.98719 219.334 4.70399 218.971 4.49555L218.157 4.02986C217.872 3.86659 217.773 3.50282 217.936 3.21748C218.1 2.93244 218.463 2.83326 218.749 2.99684L219.562 3.46253C220.136 3.7909 220.578 4.25294 220.84 4.79859C221.653 6.48805 221.873 8.4308 221.882 8.51258C221.918 8.83943 221.682 9.13331 221.355 9.16902C221.333 9.17146 221.311 9.17268 221.289 9.17268V9.17268Z" fill="#003C71"/>
<path d="M214.561 19.7109H205.044C204.712 19.7109 204.511 20.1684 204.69 20.5172L205.277 21.6622C205.797 22.6775 206.698 23.2922 207.665 23.2922H215.849L216.12 21.6525C216.12 20.5804 215.422 19.7109 214.561 19.7109V19.7109Z" fill="#003C71"/>
<path d="M216.115 21.6531L215.849 23.2925H213.999L214.175 21.7654C214.175 20.8584 213.749 20.0759 213.133 19.7109H214.555C215.416 19.7109 216.115 20.581 216.115 21.6531V21.6531Z" fill="#003C71"/>
<path d="M222.317 13.9043H220.161L221.563 27.3772C221.687 29.6013 221.006 30.8736 220.295 31.5898C219.713 32.1761 219.002 32.4666 218.282 32.4666H215.706C215.042 32.4666 214.534 31.8755 214.634 31.2191C215.172 27.7013 215.862 23.2225 215.862 23.2225H204.755C202.047 23.2225 199.404 24.0511 197.18 25.5968C193.688 27.943 192.212 31.4406 191.612 33.5518C191.353 34.4612 192.037 35.3646 192.982 35.3646H220.852H223.714C226.452 35.3646 227.057 33.2109 227.088 30.3774C227.173 22.7422 222.317 13.9043 222.317 13.9043V13.9043Z" fill="#26BED6"/>
<path d="M227.087 30.3774C227.061 32.6348 226.672 34.4622 225.13 35.1107C225.503 34.1637 225.628 32.9308 225.642 31.552C225.716 24.2665 222.081 15.9865 221.107 13.9043H222.314C222.314 13.9043 227.172 22.7422 227.087 30.3774Z" fill="#00D1FC"/>
<path d="M229.711 35.6238C229.711 37.6102 228.1 39.2203 226.114 39.2203C224.128 39.2203 222.518 37.6102 222.518 35.6238C222.518 33.6375 224.128 32.0273 226.114 32.0273C228.1 32.0273 229.711 33.6375 229.711 35.6238V35.6238Z" fill="#838383"/>
<path d="M229.711 35.6242C229.711 37.6103 228.101 39.2204 226.115 39.2204C225.254 39.2204 224.464 38.9186 223.846 38.4141C224.286 38.607 224.772 38.7135 225.284 38.7135C227.269 38.7135 228.88 37.1034 228.88 35.117C228.88 33.9909 228.362 32.986 227.552 32.3262C228.823 32.881 229.711 34.149 229.711 35.6242V35.6242Z" fill="#706F6F"/>
<path d="M227.529 35.6241C227.529 36.4056 226.896 37.0389 226.114 37.0389C225.333 37.0389 224.699 36.4056 224.699 35.6241C224.699 34.8425 225.333 34.209 226.114 34.209C226.896 34.209 227.529 34.8425 227.529 35.6241V35.6241Z" fill="#EFE2DD"/>
<path d="M205.083 35.6238C205.083 37.6102 203.473 39.2203 201.487 39.2203C199.501 39.2203 197.891 37.6102 197.891 35.6238C197.891 33.6375 199.501 32.0273 201.487 32.0273C203.473 32.0273 205.083 33.6375 205.083 35.6238V35.6238Z" fill="#838383"/>
<path d="M205.085 35.6242C205.085 37.6103 203.474 39.2204 201.488 39.2204C200.627 39.2204 199.837 38.9186 199.219 38.4141C199.659 38.607 200.145 38.7135 200.657 38.7135C202.643 38.7135 204.253 37.1034 204.253 35.117C204.253 33.9909 203.735 32.986 202.925 32.3262C204.196 32.881 205.085 34.149 205.085 35.6242V35.6242Z" fill="#706F6F"/>
<path d="M202.902 35.6241C202.902 36.4056 202.269 37.0389 201.487 37.0389C200.706 37.0389 200.072 36.4056 200.072 35.6241C200.072 34.8425 200.706 34.209 201.487 34.209C202.269 34.209 202.902 34.8425 202.902 35.6241V35.6241Z" fill="#EFE2DD"/>
<path d="M194.93 35.3649C194.93 31.678 197.919 28.6895 201.605 28.6895C205.292 28.6895 208.281 31.678 208.281 35.3649H194.93Z" fill="#003C71"/>
<path d="M208.282 35.3649H206.362C206.362 32.004 203.879 29.2235 200.646 28.7581C200.96 28.7126 201.28 28.6895 201.606 28.6895C205.292 28.6891 208.282 31.6777 208.282 35.3649V35.3649Z" fill="#003C71"/>
<path d="M221.102 35.3644C221.102 32.5961 223.346 30.3516 226.114 30.3516C228.446 30.3516 230.406 31.9437 230.966 34.1C231.132 34.74 230.647 35.3644 229.986 35.3644H221.102Z" fill="#003C71"/>
<path d="M229.987 35.3647H229.435C229.435 32.8848 227.634 30.8258 225.27 30.4236C225.544 30.3766 225.828 30.3516 226.116 30.3516C228.448 30.3516 230.407 31.944 230.968 34.1003C231.134 34.7403 230.648 35.3647 229.987 35.3647V35.3647Z" fill="#003C71"/>
<path d="M225.875 8.64844C227.02 8.64844 227.949 9.76538 227.949 11.1432C227.949 12.5211 227.02 13.6381 225.875 13.6381V8.64844Z" fill="#F5D573"/>
<path d="M223.801 13.8878H219.88C219.205 13.8878 218.658 13.3409 218.658 12.6664V9.62171C218.658 8.94727 219.205 8.40039 219.88 8.40039H223.801V13.8878Z" fill="#003C71"/>
<path d="M222.307 8.40039H223.803V13.8878H222.307V8.40039Z" fill="#003C71"/>
<path d="M224.191 14.2386H225.485C225.7 14.2386 225.875 14.0637 225.875 13.8483V8.43689C225.875 8.22144 225.7 8.04688 225.485 8.04688H224.191C223.975 8.04688 223.801 8.22144 223.801 8.43689V13.8483C223.801 14.0637 223.975 14.2386 224.191 14.2386Z" fill="#003C71"/>
<path d="M217.057 1.33572C217.057 1.06442 217.326 0.867272 217.58 0.961266C218.31 1.23043 218.84 2.04678 218.84 3.01266C218.84 3.97824 218.31 4.79458 217.58 5.06375C217.326 5.15774 217.057 4.9606 217.057 4.6893V1.33572Z" fill="#003C71"/>
<path d="M218.659 12.192H215.404C215.083 12.192 214.822 11.9317 214.822 11.6107V10.5166C214.822 10.1959 215.083 9.93555 215.404 9.93555H218.659V12.192Z" fill="#003C71"/>
<path d="M217.059 9.9375H218.66V12.194H217.059V9.9375Z" fill="#003C71"/>
<path d="M191.595 23.0479H198.012C198.341 23.0479 198.608 22.7815 198.608 22.4528C198.608 22.1238 198.341 21.8574 198.012 21.8574H191.595C191.266 21.8574 191 22.1238 191 22.4528C191 22.7815 191.266 23.0479 191.595 23.0479V23.0479Z" fill="#003C71"/>
<path d="M194.165 20.8682H200.583C200.911 20.8682 201.178 20.6018 201.178 20.2731C201.178 19.9442 200.911 19.6777 200.583 19.6777H194.165C193.837 19.6777 193.57 19.9442 193.57 20.2731C193.57 20.6018 193.837 20.8682 194.165 20.8682Z" fill="#003C71"/>
</g>
</g>
<g opacity="0.4">
<path d="M305 36.25C313.975 36.25 321.25 28.9746 321.25 20C321.25 11.0254 313.975 3.75 305 3.75C296.025 3.75 288.75 11.0254 288.75 20C288.75 28.9746 296.025 36.25 305 36.25Z" fill="#003C71"/>
<path d="M305 30.5469C310.868 30.5469 315.625 25.7899 315.625 19.9219C315.625 14.0538 310.868 9.29688 305 9.29688C299.132 9.29688 294.375 14.0538 294.375 19.9219C294.375 25.7899 299.132 30.5469 305 30.5469Z" fill="#FFFEFE"/>
<path d="M323.45 5.0989C322.979 3.03788 321.977 1.77179 320.628 1.5339C319.31 1.30108 317.946 2.14929 316.788 3.92108C315.824 5.39601 315.069 7.38452 314.718 9.37687C314.391 11.2355 314.574 12.8904 315.25 14.1626C315.621 14.884 316.189 15.4848 316.889 15.8947L312.223 35.8211C312.174 36.028 312.169 36.2426 312.206 36.4518C312.243 36.661 312.323 36.8604 312.44 37.0377C312.557 37.2151 312.709 37.3668 312.886 37.4834C313.064 37.6001 313.264 37.6793 313.473 37.7162L315.144 38.0108C315.353 38.0477 315.567 38.0415 315.774 37.9926C315.981 37.9438 316.176 37.8532 316.346 37.7266C316.517 37.5999 316.66 37.4398 316.766 37.256C316.873 37.0722 316.941 36.8686 316.966 36.6576L319.404 16.2736C320.136 16.1054 320.811 15.7494 321.363 15.2405C322.432 14.2759 323.171 12.7837 323.499 10.9251C323.853 8.91257 323.836 6.78898 323.45 5.0989V5.0989Z" fill="#26BED6"/>
<path d="M298.969 35.8172L294.35 16.0937L294.558 16.0572C294.942 15.9895 295.309 15.8468 295.637 15.6374C295.966 15.4279 296.25 15.1557 296.474 14.8363C296.698 14.517 296.856 14.1567 296.941 13.7761C297.025 13.3954 297.034 13.0019 296.966 12.618L296.396 9.38664L294.877 0.769531L293.646 0.986641L295.057 8.9882L293.826 9.20523L292.415 1.20367L291.184 1.42102L292.595 9.42258L291.364 9.63977L289.953 1.63781L288.722 1.85484L290.133 9.85641L288.902 10.0734L287.491 2.07188L286.26 2.28898L287.779 10.9062L288.349 14.1376C288.416 14.5216 288.559 14.8886 288.768 15.2175C288.978 15.5465 289.25 15.8309 289.569 16.0545C289.889 16.2782 290.249 16.4367 290.63 16.521C291.011 16.6053 291.404 16.6137 291.788 16.5457L291.82 16.5401L294.226 36.6537C294.251 36.8647 294.319 37.0684 294.425 37.2522C294.532 37.436 294.675 37.5961 294.846 37.7228C295.016 37.8494 295.211 37.94 295.418 37.9888C295.625 38.0377 295.839 38.0439 296.048 38.007L297.719 37.7123C297.928 37.6754 298.128 37.5962 298.306 37.4796C298.483 37.3629 298.635 37.2112 298.752 37.0338C298.869 36.8564 298.949 36.6571 298.986 36.4479C299.023 36.2387 299.017 36.0241 298.969 35.8172V35.8172Z" fill="#26BED6"/>
<path d="M305 25.6239L299.693 20.4499C299.397 20.1639 299.161 19.8223 298.997 19.4446C298.834 19.067 298.747 18.6608 298.741 18.2493C298.734 17.8379 298.81 17.4293 298.962 17.047C299.114 16.6647 299.34 16.3162 299.628 16.0215C299.915 15.7269 300.258 15.4919 300.636 15.33C301.014 15.1682 301.421 15.0826 301.832 15.0783C302.244 15.074 302.652 15.151 303.034 15.3048C303.415 15.4587 303.763 15.6865 304.056 15.975L305 16.8948L305.943 15.975C306.237 15.6865 306.584 15.4587 306.966 15.3048C307.347 15.151 307.756 15.074 308.167 15.0783C308.579 15.0826 308.985 15.1682 309.364 15.33C309.742 15.4919 310.085 15.7269 310.372 16.0215C310.659 16.3162 310.885 16.6647 311.038 17.047C311.19 17.4293 311.265 17.8379 311.259 18.2493C311.253 18.6608 311.166 19.067 311.002 19.4446C310.839 19.8223 310.602 20.1639 310.306 20.4499L305 25.6239Z" fill="#003C71"/>
</g>
<defs>
<clipPath id="clip0">
<rect x="5" width="40" height="40" fill="white"/>
</clipPath>
<clipPath id="clip1">
<rect x="98" width="40" height="40" fill="white"/>
</clipPath>
<clipPath id="clip2">
<rect x="191" width="40" height="40" fill="white"/>
</clipPath>
</defs>
</svg>
